PathFileType	4	(X/Y/Z)	6_coords_data.trc
DataRate	CameraRate	NumFrames	NumMarkers	Units	OrigDataRate	OrigDataStartFrame	OrigNumFrames
30.0	30.0	8	21	m	30.0	31	72
Frame#	Time	THUMB_TIP	THUMB_IP	THUMB_MCP	THUMB_CMC	INDEX_TIP	INDEX_DIP	INDEX_PIP	INDEX_MCP	MIDDLE_TIP	MIDDLE_DIP	MIDDLE_PIP	MIDDLE_MCP	RING_TIP	RING_DIP	RING_PIP	RING_MCP	PINKY_TIP	PINKY_DIP	PINKY_PIP	PINKY_MCP	WRIST
X1	Y1	Z1	X2	Y2	Z2	X3	Y3	Z3	X4	Y4	Z4	X5	Y5	Z5	X6	Y6	Z6	X7	Y7	Z7	X8	Y8	Z8	X9	Y9	Z9	X10	Y10	Z10	X11	Y11	Z11	X12	Y12	Z12	X13	Y13	Z13	X14	Y14	Z14	X15	Y15	Z15	X16	Y16	Z16	X17	Y17	Z17	X18	Y18	Z18	X19	Y19	Z19	X20	Y20	Z20	X21	Y21	Z21
30	1.0	0.05159830093383789	-0.14858799743652343	1.059260009765625	0.03934199905395508	-0.1258550033569336	1.07	0.016027599334716796	-0.11130000305175781	1.0873399658203124	0.0007826740145683281	-0.07684190368652344	1.0940699462890624	0.0432938003540039	-0.12549500274658204	0.9656229858398437	0.030481700897216798	-0.12039199829101563	0.9844920043945312	0.017673599243164063	-0.11414600372314453	1.0050800170898437	-0.0004093309938907621	-0.10050199890136718	1.0388299560546874	0.043284198760986325	-0.08696309661865234	0.9435170288085938	0.029212900161743164	-0.08616349792480468	0.964906005859375	0.012161199569702148	-0.08436940002441407	0.9914249877929687	-0.006813350200653076	-0.07804329681396484	1.0286099853515625	0.037943000793457034	-0.05048870086669922	0.9449970092773438	0.02691290092468262	-0.05186949920654297	0.9670650024414063	0.014458900451660156	-0.05369620132446289	0.9933040161132812	-0.003737950086593628	-0.055532001495361326	1.0298800048828125	0.039309200286865235	-0.01809950065612793	0.97968701171875	0.02675979995727539	-0.02195229911804199	0.9952919921875	0.01475100040435791	-0.026319599151611327	1.0106699829101562	-0.0008950589895248411	-0.034871601104736326	1.0356600341796875	-0.029144699096679688	-0.04777629852294922	1.1058800048828126
31	1.0333333333333334	0.0514911003112793	-0.14868800354003905	1.0591700439453124	0.03924639892578125	-0.1258769989013672	1.07	0.015919400215148927	-0.11131099700927734	1.0873399658203124	0.0006944479942321771	-0.07690660095214844	1.0940699462890624	0.04293320083618164	-0.1256600036621094	0.965530029296875	0.030171600341796875	-0.12054499816894532	0.984448974609375	0.017392900466918944	-0.11426499938964843	1.0050499877929688	-0.00046675699949264504	-0.10059799957275391	1.03872998046875	0.04321760177612305	-0.08699960327148437	0.9435339965820313	0.029057600021362304	-0.08619529724121094	0.9649349975585938	0.012031499862670898	-0.08438719940185548	0.99139599609375	-0.0069997901916503905	-0.07813739776611328	1.0285	0.03791289901733398	-0.050548599243164065	0.9450650024414062	0.02687179946899414	-0.05192369842529297	0.9670819702148438	0.014359600067138672	-0.05373379898071289	0.9933359985351562	-0.003811909914016723	-0.05557270050048828	1.0298399658203126	0.039448299407958985	-0.018271699905395507	0.9798070068359375	0.026753000259399414	-0.022095500946044924	0.9953270263671875	0.014675600051879883	-0.026425899505615233	1.0106799926757812	-0.001064900040626525	-0.03491600036621094	1.03568994140625	-0.029338399887084962	-0.04796770095825195	1.10593994140625
32	1.0666666666666667	0.0514473991394043	-0.14879400634765624	1.05918994140625	0.039144599914550784	-0.1259739990234375	1.0701300048828124	0.015791799545288084	-0.1114749984741211	1.0873699951171876	0.0006508849859237671	-0.07703130340576173	1.0941099853515626	0.04283470153808594	-0.12583100128173827	0.9655650024414062	0.03008219909667969	-0.12070500183105469	0.984427001953125	0.017321599960327148	-0.11441200256347656	1.0050599975585937	-0.0005608760118484491	-0.10073500061035157	1.038780029296875	0.04337379837036133	-0.08704679870605468	0.9436840209960937	0.029138500213623048	-0.08628199768066407	0.9650499877929688	0.012056300163269043	-0.08443910217285157	0.9915880126953125	-0.007132740020751953	-0.07831880187988281	1.028550048828125	0.03793130111694336	-0.050672698974609375	0.9451320190429687	0.02683989906311035	-0.05203900146484375	0.9671339721679687	0.014320099830627441	-0.05386009979248047	0.9933670043945313	-0.003962960004806518	-0.05571009826660156	1.02997998046875	0.039542900085449216	-0.01848550033569336	0.979968017578125	0.026806600570678712	-0.022302299499511718	0.9954959716796875	0.014695300102233886	-0.02660070037841797	1.0107899780273437	-0.001068050026893615	-0.03504510116577148	1.035760009765625	-0.029351699829101564	-0.048033199310302734	1.1059599609375
33	1.1	0.051699901580810545	-0.14869700622558593	1.0594200439453125	0.039332698822021485	-0.1259520034790039	1.070300048828125	0.015934100151062013	-0.11148899841308593	1.0874599609375	0.000686308979988098	-0.07712909698486328	1.09418994140625	0.042956298828125	-0.12594499969482423	0.9657420043945313	0.030197399139404297	-0.120802001953125	0.9845910034179688	0.017386800765991212	-0.11456300354003907	1.0051500244140625	-0.0006052619814872741	-0.10085199737548828	1.0389000244140625	0.043698001861572265	-0.0870707015991211	0.9440280151367187	0.029391399383544924	-0.08635260009765625	0.9653060302734375	0.0122076997756958	-0.08455130004882813	0.9919229736328125	-0.007050730228424072	-0.07833809661865235	1.02877001953125	0.038000999450683595	-0.05080920028686523	0.9452520141601563	0.02688949966430664	-0.05218180084228516	0.9672860107421875	0.014326600074768067	-0.05399430084228515	0.9934359741210937	-0.003967730045318603	-0.05583489990234375	1.03002001953125	0.03949959945678711	-0.018634000778198243	0.9800150146484375	0.026814899444580077	-0.02244580078125	0.9954959716796875	0.014670700073242187	-0.02673870086669922	1.0108300170898437	-0.001066310048103332	-0.03517319869995117	1.03572998046875	-0.02937380027770996	-0.04812319946289063	1.105969970703125
34	1.1333333333333333	0.05182160186767578	-0.14842599487304686	1.0595400390625	0.03936149978637695	-0.12582499694824217	1.0703199462890625	0.015942299842834472	-0.1114020004272461	1.087469970703125	0.000592859029769897	-0.07706020355224609	1.0941600341796875	0.04276979827880859	-0.1259469985961914	0.9657239990234375	0.029990800857543944	-0.12079900360107422	0.9845759887695312	0.017242599487304687	-0.11450800323486328	1.0051599731445313	-0.000734063029289245	-0.10081099700927734	1.038949951171875	0.04363190078735352	-0.08692880249023438	0.94410302734375	0.029257799148559572	-0.0862572021484375	0.9652319946289063	0.012009900093078613	-0.08451950073242187	0.9916669921875	-0.007261980056762696	-0.07837590026855469	1.028719970703125	0.03774549865722656	-0.050716400146484375	0.9452369995117188	0.02665570068359375	-0.05211330032348633	0.9673419799804688	0.01415429973602295	-0.05394720077514648	0.9935159912109375	-0.004135369777679443	-0.05583789825439453	1.029949951171875	0.03918410110473633	-0.018535100936889648	0.9800139770507813	0.02644759941101074	-0.022388399124145506	0.9955609741210938	0.01437310028076172	-0.02672050094604492	1.0108699951171876	-0.001345530033111572	-0.035161800384521484	1.03577001953125	-0.029559099197387695	-0.04808769989013672	1.1061400146484375
35	1.1666666666666667	0.0514906997680664	-0.14831900024414063	1.0593499755859375	0.03919179916381836	-0.1257720031738281	1.0701300048828124	0.015633399963378907	-0.11127899932861328	1.0874100341796875	0.00030876898765563903	-0.07697419738769531	1.0940899658203125	0.04228580093383789	-0.1258460006713867	0.9655059814453125	0.029532499313354492	-0.12070500183105469	0.984406005859375	0.016798500061035157	-0.114427001953125	1.005030029296875	-0.001113229990005493	-0.10076300048828125	1.0388299560546874	0.0432249984741211	-0.0867885971069336	0.9439349975585938	0.028839399337768554	-0.0861074981689453	0.9650960083007812	0.011596099853515625	-0.08436509704589844	0.991541015625	-0.007669779777526855	-0.07827999877929688	1.02856005859375	0.03731829833984375	-0.050556499481201174	0.9451320190429687	0.026237499237060546	-0.051971500396728515	0.9671649780273438	0.013745699882507324	-0.053812599182128905	0.9933690185546875	-0.0045886502265930175	-0.05570640182495117	1.0299100341796874	0.0388286018371582	-0.01848550033569336	0.9798380126953125	0.026174999237060546	-0.022291400909423827	0.9953759765625	0.014104599952697755	-0.02660580062866211	1.01075	-0.001643880009651184	-0.035063098907470704	1.0356500244140625	-0.029879999160766602	-0.04804449844360351	1.1061300048828124
36	1.2	0.05122850036621094	-0.14844900512695314	1.0591300048828125	0.03885139846801758	-0.12574099731445312	1.0699599609375	0.015427800178527832	-0.11138300323486328	1.087280029296875	0.00010633199661970101	-0.07702739715576172	1.094050048828125	0.042081401824951174	-0.12583300018310548	0.9654509887695313	0.029328800201416014	-0.12071199798583984	0.9843289794921875	0.01652720069885254	-0.11445099639892578	1.0049299926757813	-0.001341910004615783	-0.10078500366210938	1.038760009765625	0.043112201690673826	-0.08675669860839844	0.9439550170898438	0.02867729949951172	-0.08610019683837891	0.96506298828125	0.011371299743652344	-0.08435459899902344	0.9914459838867188	-0.007761650085449219	-0.07841089630126953	1.0283800048828124	0.03709149932861328	-0.050569400787353516	0.945073974609375	0.026054500579833984	-0.05197219848632813	0.9671199951171875	0.013549099922180176	-0.05383430099487305	0.9933330078125	-0.0046786899566650395	-0.05575	1.0298699951171875	0.03863980102539062	-0.018558700561523436	0.9797919921875	0.02588509941101074	-0.0223700008392334	0.995385009765625	0.013798100471496582	-0.0266643009185791	1.010780029296875	-0.0018435699939727782	-0.03510540008544922	1.0356500244140625	-0.02996780014038086	-0.04811050033569336	1.105969970703125
37	1.2333333333333334	0.051285099029541016	-0.14837800598144532	1.059239990234375	0.03892110061645508	-0.12576499938964844	1.0700899658203125	0.015399200439453125	-0.11138200378417969	1.0873199462890626	6.0184601694345e-05	-0.07703679656982422	1.0941400146484375	0.0420348014831543	-0.12587799835205077	0.9655	0.029275400161743164	-0.12074700164794921	0.984406005859375	0.01650079917907715	-0.11446399688720703	1.005	-0.001399530053138733	-0.10080400085449219	1.0388599853515625	0.043093498229980466	-0.08681089782714843	0.9440360107421875	0.028652000427246093	-0.08617279815673828	0.9651389770507812	0.011298500061035156	-0.08440239715576171	0.9916110229492188	-0.007854909896850585	-0.07838449859619141	1.0285999755859374	0.03703379821777344	-0.05064139938354492	0.9450969848632812	0.025970699310302735	-0.05203950119018555	0.9671699829101562	0.013458100318908692	-0.05387779998779297	0.9933939819335937	-0.004813980102539062	-0.055774700164794924	1.02993994140625	0.038542701721191404	-0.018640800476074217	0.979822021484375	0.025841999053955077	-0.022425300598144533	0.9953729858398438	0.013764800071716309	-0.02672060012817383	1.010760009765625	-0.001948199987411499	-0.035120498657226565	1.0357099609375	-0.030090999603271485	-0.047933300018310546	1.1061199951171874
